<svg width="16" height="16" viewBox="0 0 16 16" fill="none" xmlns="http://www.w3.org/2000/svg">
<g clip-path="url(#clip0_1_34)">
<mask id="mask0_1_34" style="mask-type:luminance" maskUnits="userSpaceOnUse" x="0" y="4" width="16" height="7">
<path d="M16 4H0V11H16V4Z" fill="white"/>
</mask>
<g mask="url(#mask0_1_34)">
<path d="M5.49234 4.08675C5.59826 3.97652 5.76998 3.97652 5.87585 4.08675L6.64287 4.88509C6.7488 4.99532 6.7488 5.17403 6.64287 5.28427L1.27367 10.8727C1.16777 10.9829 0.996066 10.9829 0.890162 10.8727L0.12313 10.0744C0.017225 9.96411 0.017225 9.78539 0.12313 9.6752L5.49234 4.08675Z" fill="#03045E"/>
<path d="M4.72597 5.28421C4.62007 5.17398 4.62007 4.99526 4.72597 4.88503L5.493 4.08669C5.59892 3.97646 5.77064 3.97646 5.8765 4.08669L11.2457 9.67513C11.3517 9.78533 11.3517 9.96406 11.2457 10.0743L10.4787 10.8726C10.3728 10.9828 10.2011 10.9828 10.0952 10.8726L4.72597 5.28421Z" fill="#03045E"/>
<path d="M10.1568 4.08669C10.2627 3.97647 10.4344 3.97647 10.5402 4.08669L11.3073 4.88504C11.4132 4.99527 11.4132 5.17398 11.3073 5.28421L5.93808 10.8726C5.83221 10.9828 5.6605 10.9828 5.55457 10.8726L4.78756 10.0743C4.68165 9.96406 4.68165 9.78533 4.78756 9.67515L10.1568 4.08669Z" fill="#608BAA"/>
<path d="M9.39469 5.28421C9.28877 5.17398 9.28877 4.99526 9.39469 4.88503L10.1617 4.08669C10.2676 3.97646 10.4393 3.97646 10.5452 4.08669L15.9144 9.67513C16.0203 9.78533 16.0203 9.96406 15.9144 10.0743L15.1474 10.8726C15.0414 10.9828 14.8698 10.9828 14.7639 10.8726L9.39469 5.28421Z" fill="#608BAA"/>
</g>
</g>
<defs>
<clipPath id="clip0_1_34">
<rect width="16" height="7" fill="white" transform="translate(0 4)"/>
</clipPath>
</defs>
</svg>
