<svg width="32" height="32" viewBox="0 0 32 32" fill="none" xmlns="http://www.w3.org/2000/svg">
<mask id="mask0_1_33" style="mask-type:luminance" maskUnits="userSpaceOnUse" x="0" y="9" width="32" height="13">
<path d="M32 9H0V22H32V9Z" fill="white"/>
</mask>
<g mask="url(#mask0_1_33)">
<path d="M10.9847 9.16105C11.1965 8.95634 11.54 8.95634 11.7517 9.16105L13.2857 10.6437C13.4976 10.8484 13.4976 11.1803 13.2857 11.385L2.54735 21.7635C2.33554 21.9682 1.99213 21.9682 1.78032 21.7635L0.246259 20.2809C0.0344501 20.0762 0.0344501 19.7442 0.246259 19.5396L10.9847 9.16105Z" fill="#03045E"/>
<path d="M9.45195 11.385C9.24014 11.1802 9.24014 10.8483 9.45195 10.6436L10.986 9.16099C11.1978 8.95628 11.5413 8.95628 11.753 9.16099L22.4914 19.5395C22.7034 19.7442 22.7034 20.0761 22.4914 20.2809L20.9574 21.7635C20.7455 21.9681 20.4022 21.9681 20.1904 21.7635L9.45195 11.385Z" fill="#03045E"/>
<path d="M20.3135 9.161C20.5254 8.95629 20.8688 8.95629 21.0804 9.161L22.6145 10.6436C22.8263 10.8484 22.8263 11.1802 22.6145 11.385L11.8761 21.7635C11.6644 21.9681 11.321 21.9681 11.1091 21.7635L9.57509 20.2809C9.36328 20.0761 9.36328 19.7442 9.57509 19.5396L20.3135 9.161Z" fill="#608BAA"/>
<path d="M18.7894 11.385C18.5776 11.1802 18.5776 10.8483 18.7894 10.6436L20.3235 9.16099C20.5352 8.95628 20.8787 8.95628 21.0905 9.16099L31.8289 19.5395C32.0406 19.7442 32.0406 20.0761 31.8289 20.2809L30.295 21.7635C30.083 21.9681 29.7396 21.9681 29.5278 21.7635L18.7894 11.385Z" fill="#608BAA"/>
</g>
</svg>
