<svg width="152" height="63" viewBox="0 0 152 63" fill="none" xmlns="http://www.w3.org/2000/svg">
<g clip-path="url(#clip0_1427_5)">
<path d="M52.1772 0.780238C53.1835 -0.21182 54.8148 -0.211822 55.8206 0.780238L63.1073 7.96536C64.1136 8.95741 64.1136 10.5658 63.1073 11.5579L12.0999 61.8538C11.0938 62.8456 9.46263 62.8456 8.45654 61.8538L1.16973 54.6688C0.163637 53.6765 0.163637 52.068 1.16973 51.0763L52.1772 0.780238Z" fill="#03045E"/>
<path d="M44.8967 11.5579C43.8906 10.5658 43.8906 8.95733 44.8967 7.96528L52.1834 0.780177C53.1897 -0.211882 54.821 -0.211882 55.8267 0.780177L106.834 51.0762C107.841 52.068 107.841 53.6765 106.834 54.6688L99.5476 61.8538C98.5413 62.8455 96.9105 62.8455 95.9043 61.8538L44.8967 11.5579Z" fill="#03045E"/>
<path d="M96.4891 0.780238C97.4954 -0.21182 99.1267 -0.211822 100.132 0.780238L107.419 7.96536C108.425 8.95741 108.425 10.5658 107.419 11.5579L56.4116 61.8538C55.4058 62.8456 53.7745 62.8456 52.7682 61.8538L45.4816 54.6688C44.4755 53.6765 44.4755 52.068 45.4816 51.0763L96.4891 0.780238Z" fill="#608BAA"/>
<path d="M89.2498 11.5579C88.2435 10.5658 88.2435 8.95733 89.2498 7.96528L96.5365 0.780177C97.5423 -0.211882 99.1736 -0.211882 100.18 0.780177L151.187 51.0762C152.193 52.068 152.193 53.6765 151.187 54.6688L143.901 61.8538C142.894 62.8455 141.263 62.8455 140.257 61.8538L89.2498 11.5579Z" fill="#608BAA"/>
</g>
<defs>
<clipPath id="clip0_1427_5">
<rect width="152" height="63" fill="white"/>
</clipPath>
</defs>
</svg>
